<svg width="221" height="53" viewBox="0 0 221 53" fill="none" xmlns="http://www.w3.org/2000/svg">
<path fill-rule="evenodd" clip-rule="evenodd" d="M51.8394 16.4258C51.2082 15.0199 50.4668 13.6952 49.6131 12.4558C40.9263 18.0349 29.5174 24.7354 15.0414 31.6026C30.1868 26.2145 43.0932 22.8399 53.2756 20.6111C52.9409 19.2052 52.4601 17.7972 51.8394 16.4258ZM49.1281 41.3324C46.1329 43.4068 42.8666 45.1947 39.3524 46.6494C32.2372 49.5933 24.6773 50.9058 17.3651 50.7392H17.291C17.5007 50.8103 17.6998 50.8936 17.9095 50.9546C18.0959 51.0257 18.2802 51.0968 18.4666 51.1577C20.0002 51.6575 21.5846 52.0171 23.1924 52.2426C23.4889 52.2914 23.7855 52.3259 24.0714 52.3503C24.1329 52.3747 24.1837 52.3747 24.2451 52.3747C24.5417 52.3991 24.8382 52.4336 25.1369 52.4458C25.4589 52.4702 25.7809 52.4925 26.1134 52.5047C29.9983 52.6591 33.9467 52.0049 37.6832 50.4548C38.5856 50.085 39.4647 49.6563 40.3183 49.191C40.6022 49.0366 40.8754 48.8802 41.1593 48.7136C41.2588 48.6547 41.3563 48.5937 41.4431 48.5348C41.6909 48.3804 41.9515 48.2239 42.1972 48.0573C43.0254 47.521 43.8176 46.948 44.5739 46.3284C44.8217 46.1252 45.0695 45.9119 45.3152 45.6965C45.5504 45.4811 45.7982 45.2678 46.0206 45.0525C46.2557 44.827 46.4909 44.5994 46.7133 44.3739C47.1581 43.9208 47.5923 43.4556 48.0012 42.9679C48.4227 42.4905 48.8188 41.9907 49.1641 41.4767C49.2636 41.3568 49.3505 41.2389 49.4246 41.1191L49.1281 41.3344V41.3324ZM4.50951 40.8428C5.72114 42.6083 7.13189 44.2052 8.70362 45.601C16.8207 42.3706 30.7545 36.1942 38.8822 29.0061C22.9318 34.2987 17.5134 35.8021 4.50739 40.8448L4.50951 40.8428ZM54.0043 25.4405C47.8169 30.1499 37.0774 37.3747 19.2334 47.0191C31.7564 44.2662 39.3651 41.499 52.6422 34.8594C52.6422 34.8472 52.6549 34.8472 52.6549 34.8472V34.8107C52.7778 34.4653 52.8773 34.13 52.9896 33.7846C53.0892 33.4393 53.1866 33.0939 53.2735 32.7464C53.3603 32.4011 53.4344 32.0435 53.5086 31.6981C53.5827 31.3405 53.6442 30.9951 53.7056 30.6375C53.8178 29.9346 53.9026 29.2316 53.9661 28.5144V28.4778C53.9915 28.1203 54.0148 27.7627 54.0276 27.3929C54.0403 27.143 54.053 26.8931 54.0403 26.6412C54.053 26.2349 54.053 25.8184 54.0403 25.414C54.0276 25.4262 54.0148 25.4384 54.0021 25.4384L54.0043 25.4405ZM30.0999 0.925943C29.8648 0.889372 29.6297 0.867028 29.3946 0.854838C28.8883 0.795919 28.3799 0.771544 27.8737 0.759354C24.0503 0.604945 20.1654 1.25913 16.4394 2.79713C15.7828 3.07141 15.1409 3.35789 14.5224 3.69108C14.2259 3.84549 13.9293 3.98975 13.6306 4.15635C13.0481 4.47736 12.4931 4.81259 11.936 5.17017C11.6522 5.34896 11.379 5.52774 11.1184 5.71872C11.093 5.73091 11.0697 5.74312 11.057 5.76547C10.7964 5.94426 10.5507 6.13522 10.2902 6.3262C9.49796 6.91133 8.76717 7.531 8.0745 8.20959C7.8881 8.37619 7.70381 8.55498 7.5174 8.74596C7.39455 8.85364 7.29499 8.96132 7.18272 9.07916C7.03445 9.24576 6.88617 9.40018 6.72518 9.56881C6.29306 10.0341 5.88424 10.5217 5.50084 11.0235C5.30385 11.2734 5.11744 11.5233 4.93104 11.7752C4.74463 12.0373 4.56034 12.2872 4.38665 12.5493C4.20024 12.8114 4.02867 13.0735 3.88039 13.3356C3.7194 13.5977 3.55842 13.872 3.39743 14.1462C3.08817 14.6826 2.80433 15.2433 2.53107 15.8041C2.3828 16.1149 2.24723 16.4238 2.10954 16.7346C7.02174 11.4766 13.3087 7.20796 20.4598 4.25184C23.974 2.79714 27.5623 1.74877 31.176 1.06815C30.818 1.00923 30.4579 0.960482 30.0999 0.925943ZM0.0548526 26.4279C0.0421432 28.4778 0.277268 30.5522 0.808945 32.6164C13.5777 26.9886 18.4412 24.2357 33.4129 16.7367C22.3641 17.4762 8.05967 22.9963 0.0527344 26.4299L0.0548526 26.4279ZM38.3399 3.13237C24.2578 7.82966 16.9838 11.2267 6.32907 18.0593C25.7936 12.2527 38.5877 9.72524 46.3955 8.61796C44.0697 6.30385 41.3224 4.46923 38.3399 3.13237Z" fill="#002CF2"/>
<path d="M110.243 30.0914C108.906 29.8862 107.773 29.2259 106.699 28.3117C105.538 27.3243 105.062 25.6034 105.062 23.8663V5.902C105.062 4.93491 103.937 4.11816 102.929 4.11816H100.177C99.1686 4.11816 98.3489 4.90443 98.3489 5.87152V23.8358C98.3489 27.2735 99.6304 30.2519 102.155 32.6879C104.329 34.7847 106.809 35.957 109.737 36.2739C109.806 36.282 109.876 36.2861 109.944 36.2861C110.952 36.2861 111.774 35.4978 111.774 34.5307V31.8225C111.774 30.957 111.13 30.2316 110.243 30.0955V30.0914Z" fill="#002CF2"/>
<path d="M219.262 30.0914C217.926 29.8862 216.792 29.2259 215.718 28.3117C214.558 27.3243 214.081 25.6034 214.081 23.8663V5.902C214.081 4.93491 212.956 4.11816 211.948 4.11816H209.196C208.188 4.11816 207.368 4.90443 207.368 5.87152V23.8358C207.368 27.2735 208.65 30.2519 211.175 32.6879C213.348 34.7847 215.829 35.957 218.756 36.2739C218.826 36.282 218.896 36.2861 218.964 36.2861C219.972 36.2861 220.794 35.4978 220.794 34.5307V31.8225C220.794 30.957 220.15 30.2316 219.262 30.0955V30.0914Z" fill="#002CF2"/>
<path d="M127.801 10.5479C124.117 10.5479 120.925 11.8177 118.315 14.3187C115.67 16.8583 114.384 19.8327 114.384 23.4166C114.384 27.0006 115.67 29.977 118.315 32.5146C120.961 35.0522 124.064 36.2855 127.801 36.2855C131.538 36.2855 134.641 35.0522 137.286 32.5126C139.896 30.0095 141.218 26.9498 141.218 23.4166C141.218 19.8835 139.932 16.8583 137.286 14.3187C134.639 11.7811 131.538 10.5479 127.801 10.5479ZM132.597 28.0184C131.273 29.2883 129.659 29.9323 127.801 29.9323C125.943 29.9323 124.329 29.2883 123.005 28.0164C121.681 26.7466 121.01 25.2005 121.01 23.4166C121.01 21.6328 121.681 20.0461 123.005 18.7762C124.329 17.5064 125.943 16.8624 127.801 16.8624C129.659 16.8624 131.273 17.5064 132.599 18.7762C133.923 20.0461 134.594 21.6084 134.594 23.4166C134.594 25.2249 133.923 26.7466 132.599 28.0164L132.597 28.0184Z" fill="#002CF2"/>
<path d="M203.221 22.3803C203.195 22.0694 203.162 21.7626 203.121 21.464C203.03 20.8301 202.893 20.2125 202.706 19.6131C202.67 19.4892 202.63 19.3632 202.585 19.2433C202.501 19.0036 202.41 18.7639 202.31 18.5282C201.655 16.9963 200.664 15.5924 199.319 14.3022C196.678 11.7626 193.572 10.5273 189.829 10.5273C188.495 10.5273 187.218 10.696 185.987 11.0353L185.887 11.0678C185.021 11.3035 184.191 11.6204 183.39 11.9983C183.386 11.9983 183.379 12.0024 183.375 12.0044C182.28 12.5855 181.255 13.3331 180.304 14.2454C177.673 16.7687 176.362 19.8061 176.362 23.3657C176.362 24.4993 176.493 25.5863 176.766 26.6144C177.332 28.8106 178.512 30.7651 180.304 32.4819C182.596 34.6802 185.296 35.9175 188.412 36.1958C188.762 36.2284 189.113 36.2487 189.463 36.2588C189.577 36.2629 189.692 36.2629 189.808 36.2629C190.014 36.2629 190.217 36.2588 190.418 36.2487C190.55 36.2446 190.679 36.2385 190.812 36.2284C190.977 36.2182 191.138 36.204 191.304 36.1857C191.465 36.1674 191.63 36.1512 191.793 36.1268C191.954 36.1065 192.117 36.078 192.274 36.0496C192.435 36.0211 192.598 35.9907 192.755 35.9582C192.894 35.9297 193.03 35.8992 193.166 35.8586C193.286 35.8302 193.407 35.7997 193.526 35.7631C193.691 35.7204 193.856 35.6717 194.017 35.6189C194.178 35.566 194.341 35.5092 194.502 35.4523C194.703 35.3791 194.898 35.2999 195.097 35.2206C195.256 35.1536 195.413 35.0825 195.572 35.0093C195.621 34.989 195.667 34.9626 195.718 34.9382C196.243 34.6883 196.762 34.4019 197.264 34.0788V35.1699C197.264 35.7733 197.775 36.2629 198.404 36.2629H202.111C202.74 36.2629 203.25 35.7733 203.25 35.1699V23.3677C203.25 23.0325 203.24 22.7054 203.217 22.3803H203.221ZM185.057 27.9187C183.727 26.6428 183.081 25.1535 183.081 23.3657C183.081 21.5778 183.727 20.0418 185.057 18.7679C186.387 17.492 187.942 16.8723 189.808 16.8723C191.674 16.8723 193.225 17.492 194.555 18.7679C195.885 20.0438 196.531 21.5473 196.531 23.3657C196.531 25.184 195.885 26.6428 194.555 27.9187C193.225 29.1946 191.67 29.8143 189.808 29.8143C187.946 29.8143 186.387 29.1946 185.057 27.9187Z" fill="#002CF2"/>
<path d="M171.858 20.2147C171.301 18.0164 170.126 16.0761 168.319 14.339C165.84 11.9619 162.957 10.7287 159.532 10.5844C159.306 10.5742 159.077 10.5702 158.842 10.5702C158.522 10.5702 158.206 10.5803 157.891 10.5986C157.755 10.6047 157.62 10.6169 157.484 10.6311C157.454 10.6352 157.423 10.6352 157.393 10.6372C157.262 10.6515 157.128 10.6657 156.997 10.684C156.893 10.6941 156.796 10.7083 156.692 10.7266C156.626 10.7327 156.563 10.7449 156.497 10.7551C156.478 10.7551 156.461 10.7591 156.438 10.7652C156.183 10.8038 155.931 10.8526 155.686 10.9095C154.393 11.2061 153.262 11.6673 152.112 12.3337V5.90946C152.112 4.91189 151.275 4.10938 150.235 4.10938L147.276 4.12562C146.245 4.12562 145.399 4.92814 145.399 5.9257V23.4308C145.399 26.966 146.721 30.0237 149.325 32.5288C151.807 34.9018 154.69 36.1351 158.115 36.2793C158.355 36.2854 158.596 36.2935 158.842 36.2935C159.018 36.2935 159.198 36.2895 159.371 36.2834C159.471 36.2793 159.57 36.2773 159.666 36.2692C159.78 36.2631 159.886 36.2549 159.977 36.2488C159.988 36.2488 160.007 36.2488 160.028 36.2448C160.043 36.2448 160.058 36.2448 160.077 36.2407C160.092 36.2407 160.111 36.2367 160.128 36.2367H160.134C160.149 36.2326 160.164 36.2326 160.178 36.2326C160.189 36.2326 160.2 36.2326 160.208 36.2285C160.238 36.2285 160.263 36.2245 160.289 36.2224H160.293C160.293 36.2224 160.312 36.2224 160.318 36.2184C160.333 36.2184 160.348 36.2184 160.363 36.2143C160.384 36.2103 160.407 36.2103 160.428 36.2082C160.447 36.2042 160.462 36.2041 160.477 36.2021C160.532 36.196 160.587 36.192 160.638 36.1838C160.693 36.1777 160.744 36.1737 160.799 36.1655L161.155 36.1127C161.534 36.0558 161.9 35.9827 162.267 35.8974C162.392 35.8689 162.513 35.8385 162.638 35.8059C162.799 35.7633 162.957 35.7186 163.114 35.6718C165.031 35.0664 166.753 34.0241 168.317 32.5227C170.924 30.0217 172.246 26.9619 172.246 23.4329C172.246 22.3033 172.117 21.2285 171.856 20.2147H171.858ZM165.61 23.9266C165.495 25.5011 164.834 26.8807 163.633 28.0306C162.888 28.7458 162.055 29.2639 161.132 29.5767C161.106 29.5869 161.081 29.595 161.055 29.6011C161.021 29.6113 160.994 29.6214 160.96 29.6336C160.894 29.654 160.824 29.6763 160.755 29.6925C160.149 29.8612 159.509 29.9465 158.842 29.9465C158.816 29.9465 158.787 29.9465 158.761 29.9425C158.657 29.9465 158.56 29.9425 158.46 29.9364C158.35 29.9323 158.244 29.9262 158.136 29.916C156.531 29.786 155.139 29.1481 153.995 28.0327C152.688 26.7608 152.017 25.2187 152.017 23.4329C152.017 21.647 152.688 20.105 153.995 18.8331C154.26 18.5791 154.535 18.3496 154.821 18.1505C154.91 18.0875 155.001 18.0245 155.092 17.9635C156.19 17.2484 157.446 16.8867 158.842 16.8867C160.695 16.8867 162.311 17.5308 163.633 18.7986C164.959 20.0704 165.626 21.6308 165.626 23.4369C165.626 23.6015 165.62 23.7681 165.607 23.9306L165.61 23.9266Z" fill="#002CF2"/>
<path d="M93.2652 33.5467C93.2694 33.4309 93.2652 33.3151 93.2652 33.1973V31.0335V10.7084C93.2652 10.621 93.1911 10.5479 93.0979 10.5479H87.9696C87.2515 10.5479 86.6542 11.0436 86.5292 11.6998C86.5144 11.7811 86.5059 11.8664 86.5059 11.9518C86.5059 12.0737 86.3682 12.1509 86.2559 12.0899C84.3326 11.0659 82.172 10.5479 79.8207 10.5479C76.1329 10.5479 72.9386 11.8177 70.3268 14.3248C67.679 16.8644 66.3911 19.8449 66.3911 23.4309C66.3911 25.489 66.8465 27.409 67.7447 29.1298C67.8739 29.3817 68.0137 29.6296 68.1641 29.8754C68.4839 30.3996 68.8504 30.9075 69.2571 31.3951C69.5854 31.7893 69.9434 32.1712 70.3268 32.5369C70.6318 32.8295 70.939 33.0997 71.2376 33.3395C71.8752 33.8555 72.5425 34.3045 73.2394 34.6865C73.6418 34.908 74.057 35.1071 74.4828 35.2838C76.1244 35.9665 77.908 36.3119 79.8229 36.3119C81.7377 36.3119 83.4641 35.9482 85.1375 35.2554C85.5781 35.0725 86.0124 34.8673 86.4339 34.6398C86.4657 34.6235 86.5228 34.5849 86.5546 34.5666V37.4415C86.5546 37.4516 86.5546 37.4618 86.5525 37.472C86.4191 38.1973 86.1373 38.886 85.7518 39.5159C85.4553 40.0035 85.0867 40.4586 84.6419 40.8852C83.318 42.1571 81.7039 42.8011 79.8462 42.8011C77.9885 42.8011 76.3744 42.1571 75.0505 40.8852C74.6819 40.5317 74.362 40.1579 74.0951 39.7617C73.9914 39.6073 73.8113 39.5179 73.6207 39.5179H67.571C67.1833 39.5179 66.9122 39.8775 67.0266 40.233C67.6472 42.1367 68.753 43.8414 70.3607 45.3834C73.0064 47.923 76.1096 49.1563 79.8462 49.1563C83.5827 49.1563 86.686 47.923 89.3316 45.3834C91.1088 43.6788 92.2908 41.7141 92.8627 39.5179C93.0979 38.6178 93.2419 37.6772 93.2694 36.6979V33.8515C93.2716 33.7702 93.2758 33.6483 93.2694 33.5488L93.2652 33.5467ZM86.4 24.6032C86.3788 24.7271 86.3513 24.849 86.3216 24.9709C86.1034 25.8689 85.6756 26.6958 85.0464 27.4394C84.9405 27.5674 84.8283 27.6913 84.7096 27.8132C84.6609 27.862 84.6143 27.9108 84.5592 27.9636C83.4938 28.9977 82.2186 29.6093 80.757 29.786C80.4541 29.8246 80.1406 29.8429 79.8229 29.8429C79.5051 29.8429 79.198 29.8246 78.8993 29.7901C77.425 29.6174 76.1689 29.014 75.0801 27.9575C75.0378 27.9169 74.9975 27.8762 74.9594 27.8356L74.9361 27.8092C74.8217 27.6914 74.7116 27.5735 74.6099 27.4516C73.985 26.7182 73.5571 25.8994 73.3326 25.0054C73.2987 24.8693 73.269 24.7332 73.2436 24.595C73.1758 24.2314 73.1398 23.8392 73.1398 23.4329C73.1398 21.6796 73.7965 20.1558 75.0865 18.9042C76.3934 17.6385 77.944 17.0229 79.825 17.0229C81.706 17.0229 83.2565 17.6385 84.5635 18.9022C85.8556 20.1558 86.5101 21.6796 86.5101 23.4329C86.5101 23.8392 86.4762 24.2314 86.4042 24.6052L86.4 24.6032Z" fill="#002CF2"/>
<path d="M97.9043 41.6309H98.9062V47.4862H97.9043V41.6309Z" fill="#002CF2"/>
<path d="M105.452 41.6309V47.4862H104.611L101.44 43.305V47.4862H100.459V41.6309H101.363L104.469 45.743V41.6309H105.45H105.452Z" fill="#002CF2"/>
<path d="M110.995 42.5268H109.205V47.4862H108.203V42.5268H106.413V41.6309H110.995V42.5268Z" fill="#002CF2"/>
<path d="M115.598 46.578V47.4862H111.957V41.6309H115.501V42.5309H112.957V44.0608H115.272V44.9405H112.957V46.578H115.596H115.598Z" fill="#002CF2"/>
<path d="M118.964 45.3185H117.805V47.4843H116.803V41.6289H119.18C120.356 41.6289 121.23 42.401 121.23 43.4818C121.23 44.2803 120.735 44.9162 119.989 45.1823L121.398 47.4843H120.273L118.962 45.3185H118.964ZM117.805 44.4185H119.121C119.784 44.4185 120.211 44.0243 120.211 43.4737C120.211 42.9231 119.786 42.529 119.121 42.529H117.805V44.4185Z" fill="#002CF2"/>
<path d="M127.475 41.6309V47.4862H126.634L123.463 43.305V47.4862H122.482V41.6309H123.387L126.492 45.743V41.6309H127.473H127.475Z" fill="#002CF2"/>
<path d="M132.669 46.578V47.4862H129.028V41.6309H132.571V42.5309H130.027V44.0608H132.343V44.9405H130.027V46.578H132.667H132.669Z" fill="#002CF2"/>
<path d="M137.865 42.5268H136.075V47.4862H135.073V42.5268H133.283V41.6309H137.865V42.5268Z" fill="#002CF2"/>
<path d="M145.082 43.565C145.082 44.6703 144.19 45.4992 143.002 45.4992H141.748V47.4862H140.746V41.6309H143.002C144.184 41.6309 145.082 42.4537 145.082 43.565ZM144.063 43.565C144.063 42.9758 143.605 42.5431 142.953 42.5431H141.748V44.587H142.953C143.605 44.587 144.063 44.1542 144.063 43.565Z" fill="#002CF2"/>
<path d="M148.935 47.5953C147.081 47.5953 145.715 46.2909 145.715 44.5579C145.715 42.8249 147.081 41.5205 148.935 41.5205C150.788 41.5205 152.15 42.8208 152.15 44.5579C152.15 46.295 150.786 47.5953 148.935 47.5953ZM151.131 44.5579C151.131 43.349 150.193 42.4449 148.935 42.4449C147.677 42.4449 146.734 43.3572 146.734 44.5579C146.734 45.7586 147.677 46.6709 148.935 46.6709C150.193 46.6709 151.131 45.7668 151.131 44.5579Z" fill="#002CF2"/>
<path d="M155.467 45.3185H154.309V47.4843H153.307V41.6289H155.684C156.859 41.6289 157.734 42.401 157.734 43.4818C157.734 44.2803 157.238 44.9162 156.493 45.1823L157.901 47.4843H156.777L155.465 45.3185H155.467ZM154.309 44.4185H155.624C156.287 44.4185 156.715 44.0243 156.715 43.4737C156.715 42.9231 156.289 42.529 155.624 42.529H154.309V44.4185Z" fill="#002CF2"/>
<path d="M162.182 42.5329V44.1908H164.474V45.0705H162.182V47.4862H161.18V41.6309H164.701V42.5329H162.182Z" fill="#002CF2"/>
<path d="M165.785 41.6309H166.787V47.4862H165.785V41.6309Z" fill="#002CF2"/>
<path d="M171.858 44.4346C172.405 44.6845 172.727 45.2188 172.727 45.8446C172.727 46.767 171.899 47.4862 170.848 47.4862H168.342V41.6309H170.801C171.822 41.6309 172.572 42.2749 172.572 43.1364C172.572 43.6463 172.301 44.1583 171.86 44.4346H171.858ZM170.738 42.5146H169.327V44.0384H170.738C171.223 44.0384 171.57 43.7093 171.57 43.2765C171.57 42.8438 171.216 42.5146 170.738 42.5146ZM170.791 46.5679C171.322 46.5679 171.706 46.2225 171.706 45.739C171.706 45.2554 171.322 44.9121 170.791 44.9121H169.327V46.5659H170.791V46.5679Z" fill="#002CF2"/>
<path d="M176.114 45.3185H174.955V47.4843H173.953V41.6289H176.33C177.505 41.6289 178.38 42.401 178.38 43.4818C178.38 44.2803 177.885 44.9162 177.139 45.1823L178.548 47.4843H177.423L176.112 45.3185H176.114ZM174.955 44.4185H176.27C176.933 44.4185 177.361 44.0243 177.361 43.4737C177.361 42.9231 176.936 42.529 176.27 42.529H174.955V44.4185Z" fill="#002CF2"/>
<path d="M183.214 46.2124H180.492L179.973 47.4862H178.91L181.363 41.6309H182.305L184.83 47.4862H183.744L183.216 46.2124H183.214ZM180.838 45.3529H182.865L181.844 42.8844L180.838 45.3529Z" fill="#002CF2"/>
<path d="M190.497 47.5956C188.643 47.5956 187.277 46.2912 187.277 44.5582C187.277 42.8251 188.643 41.5208 190.497 41.5208C192.35 41.5208 193.712 42.8211 193.712 44.5582C193.712 46.2953 192.348 47.5956 190.497 47.5956ZM192.693 44.5582C192.693 43.3493 191.755 42.4452 190.497 42.4452C189.238 42.4452 188.296 43.3574 188.296 44.5582C188.296 45.7589 189.238 46.6711 190.497 46.6711C191.755 46.6711 192.693 45.767 192.693 44.5582ZM190.63 39.8223H191.659L190.804 41.0108H190.058L190.63 39.8223Z" fill="#002CF2"/>
<path d="M199.207 43.565C199.207 44.6703 198.315 45.4992 197.127 45.4992H195.873V47.4862H194.871V41.6309H197.127C198.309 41.6309 199.207 42.4537 199.207 43.565ZM198.188 43.565C198.188 42.9758 197.73 42.5431 197.078 42.5431H195.873V44.587H197.078C197.73 44.587 198.188 44.1542 198.188 43.565Z" fill="#002CF2"/>
<path d="M204.221 42.5268H202.431V47.4862H201.429V42.5268H199.639V41.6309H204.221V42.5268Z" fill="#002CF2"/>
<path d="M205.185 41.6309H206.186V47.4862H205.185V41.6309Z" fill="#002CF2"/>
<path d="M207.349 44.5607C207.349 42.8094 208.682 41.5273 210.486 41.5273C211.931 41.5273 213.088 42.3908 213.408 43.7094H212.393C212.101 42.9292 211.389 42.4579 210.486 42.4579C209.264 42.4579 208.368 43.3396 208.368 44.5627C208.368 45.7858 209.264 46.6615 210.486 46.6615C211.418 46.6615 212.141 46.1556 212.414 45.3266H213.431C213.113 46.7041 211.957 47.592 210.486 47.592C208.68 47.592 207.349 46.31 207.349 44.5627V44.5607Z" fill="#002CF2"/>
<path d="M217.958 46.2124H215.236L214.717 47.4862H213.653L216.106 41.6309H217.049L219.574 47.4862H218.487L217.96 46.2124H217.958ZM215.581 45.3529H217.608L216.587 42.8844L215.581 45.3529Z" fill="#002CF2"/>
</svg>
